<svg xmlns="http://www.w3.org/2000/svg" viewBox="0 0 128 128">
  <defs>
    <linearGradient id="g" x1="0" y1="0" x2="1" y2="1">
      <stop offset="0" stop-color="#4f46e5"/>
      <stop offset="1" stop-color="#06b6d4"/>
    </linearGradient>
  </defs>
  <rect x="8" y="8" width="112" height="112" rx="24" fill="url(#g)"/>
  <path d="M78 42c-6-5-13-8-22-8-18 0-32 14-32 32s14 32 32 32c9 0 16-3 22-8v-9c-5 6-12 10-21 10-13 0-23-10-23-25s10-25 23-25c9 0 16 4 21 10v-9z" fill="#fff" opacity="0.95"/>
  <path d="M86 64h22v10H86z" fill="#fff" opacity="0.95"/>
</svg>
